<?xml version="1.0" standalone="no"?>
<!DOCTYPE svg PUBLIC "-//W3C//DTD SVG 20010904//EN"
 "http://www.w3.org/TR/2001/REC-SVG-20010904/DTD/svg10.dtd">
<svg version="1.0" xmlns="http://www.w3.org/2000/svg"
 width="992.000000pt" height="992.000000pt" viewBox="0 0 992.000000 992.000000"
 preserveAspectRatio="xMidYMid meet">

<g transform="translate(0.000000,992.000000) scale(0.100000,-0.100000)"
fill="#000000" stroke="none">
<path d="M5165 8884 c-22 -2 -114 -11 -205 -20 -956 -88 -1847 -519 -2535
-1225 -739 -759 -1149 -1774 -1149 -2839 0 -1466 779 -2810 2054 -3545 614
-354 1312 -539 2030 -539 1115 0 2150 439 2935 1245 739 759 1149 1774 1149
2839 0 704 -179 1392 -519 1996 -659 1167 -1832 1936 -3160 2069 -156 16 -519
27 -600 19z m430 -124 c584 -39 1094 -181 1604 -446 503 -262 976 -662 1324
-1122 365 -482 616 -1042 731 -1637 111 -572 94 -1165 -50 -1740 -37 -146
-134 -432 -194 -570 -221 -506 -495 -904 -891 -1290 -555 -541 -1242 -901
-2004 -1049 -497 -97 -1013 -97 -1510 0 -560 109 -1097 340 -1559 672 -304
219 -621 529 -849 830 -365 482 -616 1042 -731 1637 -111 572 -94 1165 50
1740 37 146 134 432 194 570 221 506 495 904 891 1290 282 275 583 494 920
669 649 337 1372 493 2074 446z"/>
<path d="M5015 8669 c-1337 -126 -2523 -937 -3125 -2139 -188 -375 -306 -746
-370 -1159 -30 -201 -40 -340 -40 -591 0 -331 24 -558 90 -854 231 -1039 891
-1951 1807 -2497 518 -309 1072 -487 1682 -540 175 -15 645 -6 801 15 895 123
1662 499 2279 1117 618 617 994 1384 1117 2279 21 156 30 626 15 801 -52 604
-233 1167 -540 1682 -639 1071 -1768 1780 -3006 1886 -140 12 -579 12 -710 0z
m670 -39 c913 -79 1730 -449 2373 -1075 329 -320 555 -623 753 -1010 215 -419
338 -814 401 -1295 32 -239 32 -701 0 -940 -47 -360 -126 -661 -254 -980 -58
-142 -95 -220 -106 -220 -7 0 -643 260 -651 266 -2 2 19 54 47 116 94 208 146
356 197 558 128 507 128 1046 0 1560 -289 1155 -1215 2059 -2380 2324 -257 58
-376 70 -705 70 -329 0 -448 -12 -705 -70 -1074 -244 -1944 -1026 -2306 -2072
-226 -655 -226 -1408 0 -2063 39 -114 115 -298 152 -372 l20 -38 -43 -18 c-46
-19 -139 -58 -413 -170 -93 -38 -173 -66 -178 -62 -16 16 -118 264 -165 406
-128 379 -188 725 -199 1135 -15 599 92 1138 334 1680 382 856 1087 1561 1943
1943 401 179 826 289 1260 326 140 12 487 12 625 1z m74 -694 c1306 -171 2367
-1138 2655 -2422 56 -249 70 -378 70 -679 0 -241 -3 -301 -22 -430 -108 -709
-395 -1287 -887 -1781 -163 -164 -296 -274 -475 -394 -1054 -706 -2426 -706
-3480 0 -328 220 -637 528 -853 849 -273 405 -432 820 -509 1326 -19 129 -22
189 -22 430 0 302 14 433 70 680 259 1139 1122 2039 2244 2339 141 38 331 73
455 85 61 6 124 13 140 15 70 10 498 -3 614 -18z m-3185 -4642 c9 -21 13 -40
9 -44 -11 -10 -606 -291 -608 -288 -13 17 -57 109 -54 111 2 2 94 40 204 85
110 45 247 102 305 126 58 24 110 45 116 45 6 1 18 -15 28 -35z m5916 -105
c173 -73 319 -136 324 -140 12 -11 -33 -109 -49 -109 -6 0 -144 63 -306 141
-162 77 -304 145 -317 150 l-23 9 21 40 c11 22 24 40 28 40 4 0 149 -59 322
-131z m-5820 -67 c0 -5 -134 -83 -297 -172 -280 -153 -297 -161 -311 -144 -18
25 -54 95 -50 99 2 1 80 39 173 83 94 44 230 110 304 146 l135 65 23 -34 c13
-19 23 -38 23 -43z m5972 -199 l98 -46 -26 -46 c-15 -25 -32 -51 -38 -58 -8
-8 -88 31 -319 157 -170 92 -311 171 -314 174 -3 3 6 23 20 45 l27 40 227
-110 c125 -60 271 -130 325 -156z m-5909 111 c11 -14 17 -27 15 -28 -1 -2
-131 -83 -288 -181 -191 -118 -289 -174 -298 -168 -7 4 -22 22 -32 39 l-20 31
298 166 c163 92 299 167 302 167 3 0 13 -12 23 -26z m5579 -151 c166 -91 307
-170 312 -174 5 -5 -2 -25 -17 -48 l-27 -41 -308 186 c-169 103 -308 187 -310
189 -3 2 38 55 43 55 2 0 140 -75 307 -167z m-5490 28 c24 -34 26 -40 13 -51
-33 -27 -540 -380 -547 -380 -4 0 -26 25 -50 56 -34 45 -39 58 -27 64 7 5 138
85 289 179 151 93 280 170 285 170 6 0 22 -17 37 -38z m5406 -152 c163 -99
301 -184 306 -189 11 -11 -73 -121 -88 -113 -10 6 -576 392 -585 399 -4 4 58
84 65 84 3 0 139 -81 302 -181z m-5306 27 l28 -33 -269 -212 c-148 -116 -273
-211 -278 -211 -11 0 -65 69 -67 86 -1 11 538 403 554 403 3 0 17 -15 32 -33z
m5485 -391 c2 -5 -14 -29 -35 -53 l-37 -43 -205 157 c-113 86 -242 186 -288
222 l-84 64 32 33 32 33 291 -202 c160 -110 292 -205 294 -211z m-5377 270
c30 -31 32 -37 20 -49 -72 -68 -504 -446 -510 -446 -5 0 -27 23 -51 51 -36 43
-40 52 -28 64 25 24 523 415 529 415 3 0 21 -16 40 -35z m4979 -195 c154 -118
280 -218 281 -221 0 -3 -21 -29 -47 -57 l-48 -52 -250 215 c-137 119 -261 227
-275 240 l-24 25 34 35 c19 19 37 34 41 33 4 -2 134 -100 288 -218z m-4850 60
c1 -3 -109 -115 -244 -250 l-245 -245 -41 41 -41 42 43 39 c24 22 140 126 258
231 l214 191 28 -22 c15 -12 28 -24 28 -27z m4863 -325 l127 -110 -36 -37
c-21 -21 -40 -38 -44 -38 -10 0 -513 478 -518 492 -2 5 9 20 25 33 l28 23 146
-127 c80 -69 202 -175 272 -236z m-4774 245 l33 -30 -231 -255 c-126 -140
-234 -256 -238 -259 -5 -3 -28 15 -53 40 l-44 44 245 245 c135 135 247 245
250 245 3 0 20 -14 38 -30z m4437 -160 c61 -58 161 -154 223 -214 l112 -109
-22 -25 c-13 -13 -35 -32 -49 -43 l-27 -19 -233 248 c-129 136 -240 255 -248
265 -13 16 -11 21 20 47 l34 28 40 -36 c22 -20 90 -84 150 -142z m-4316 59
c33 -31 33 -31 14 -52 -11 -12 -113 -131 -227 -264 -114 -134 -211 -243 -214
-243 -4 1 -24 16 -45 34 l-39 32 234 261 c128 144 235 262 238 262 3 0 20 -13
39 -30z m4261 -252 c266 -283 253 -259 180 -317 l-38 -30 -128 152 c-71 84
-177 210 -236 279 l-107 127 32 26 c18 14 37 24 43 23 6 -1 120 -118 254 -260z
m-4033 86 c421 -281 878 -450 1393 -515 139 -17 601 -17 740 0 520 65 991 241
1413 528 l107 73 217 -257 c119 -141 225 -267 236 -279 l19 -21 -79 -58 c-139
-104 -334 -222 -513 -313 -419 -212 -804 -330 -1280 -393 -239 -32 -701 -32
-940 0 -443 58 -812 166 -1192 349 l-137 66 41 60 c22 33 56 76 74 95 l33 36
55 -27 c64 -31 69 -32 87 -11 10 12 10 20 1 35 -7 10 -12 21 -12 24 0 2 25 12
55 20 44 13 56 21 61 41 8 31 -10 74 -30 74 -22 0 -66 22 -66 32 0 6 13 28 30
51 28 39 29 44 18 81 -7 21 -18 40 -25 43 -17 7 -43 -15 -43 -35 0 -8 -17 -42
-37 -74 -35 -53 -41 -58 -74 -58 -20 0 -58 -7 -84 -15 -54 -16 -65 -13 -65 17
0 20 -1 20 -19 4 -10 -9 -26 -34 -36 -56 -17 -38 -17 -41 -1 -59 22 -25 39
-19 53 19 13 34 46 50 103 50 50 0 56 -11 28 -54 -20 -30 -29 -36 -60 -36 -33
0 -38 -3 -38 -23 0 -13 5 -28 11 -34 8 -8 -1 -30 -33 -80 -24 -37 -47 -76 -51
-86 -6 -17 -11 -16 -64 14 -170 95 -473 302 -473 322 0 21 433 546 444 539 6
-4 66 -44 133 -89z m281 -505 c17 -17 -14 -48 -48 -48 -36 0 -42 8 -23 36 16
26 51 32 71 12z"/>
<path d="M5163 8553 c-102 -4 -103 -4 -103 -28 0 -24 2 -25 75 -25 l75 0 0
-162 c0 -90 3 -180 6 -200 6 -34 10 -38 37 -38 l30 0 -4 198 -4 197 73 3 72 3
0 29 0 30 -77 -2 c-43 -1 -124 -4 -180 -5z"/>
<path d="M5649 8549 c-3 -8 -57 -444 -55 -446 0 0 14 -3 31 -5 l30 -3 11 98
c6 54 14 100 17 104 8 7 216 -17 221 -26 2 -3 -2 -49 -9 -101 -14 -99 -12
-110 27 -110 22 0 23 5 48 215 11 94 22 185 24 203 5 32 4 33 -27 30 l-32 -3
-11 -82 c-5 -46 -12 -84 -15 -87 -5 -5 -208 20 -215 27 -3 2 -1 42 4 88 5 46
9 85 8 86 -3 4 -56 15 -57 12z"/>
<path d="M4779 8514 c-14 -4 -13 -20 8 -142 40 -231 25 -275 -91 -276 -90 -1
-98 13 -137 242 l-22 133 -26 -6 c-14 -4 -28 -8 -30 -11 -2 -2 6 -63 19 -136
40 -236 71 -283 185 -283 75 1 142 31 170 77 25 42 23 119 -7 283 -23 122 -28
130 -69 119z"/>
<path d="M4010 8314 c-83 -36 -124 -100 -123 -194 1 -181 161 -298 313 -229
57 26 77 44 103 94 54 107 -10 284 -120 331 -42 18 -129 17 -173 -2z m167 -66
c72 -49 106 -185 63 -256 -22 -35 -87 -72 -130 -72 -93 0 -182 139 -159 248
20 96 139 138 226 80z"/>
<path d="M7092 8077 c-152 -274 -162 -307 -121 -374 30 -49 112 -93 172 -93
85 0 108 23 214 212 l71 128 -28 15 -28 14 -78 -141 c-102 -183 -123 -197
-222 -151 -42 20 -66 64 -56 106 3 17 40 90 80 162 l73 130 -22 17 c-12 10
-24 18 -27 18 -3 0 -16 -19 -28 -43z"/>
<path d="M3496 8064 c-96 -35 -147 -106 -127 -175 23 -75 94 -98 205 -64 59
18 128 19 144 3 19 -19 14 -72 -8 -96 -53 -56 -145 -72 -188 -32 -18 17 -25
19 -42 8 -29 -18 -25 -33 17 -65 68 -52 174 -31 253 52 31 32 35 42 35 90 0
46 -4 58 -29 84 -41 43 -80 48 -184 20 -100 -26 -138 -22 -148 15 -7 31 8 59
46 86 46 33 100 37 128 10 22 -21 24 -21 48 -5 25 16 25 17 7 37 -20 23 -73
48 -100 47 -10 0 -36 -7 -57 -15z"/>
<path d="M7513 7607 c-135 -161 -142 -172 -126 -189 9 -10 19 -18 23 -18 3 0
53 56 110 125 58 69 107 125 111 125 3 0 2 -26 -2 -57 -4 -32 -15 -123 -23
-203 l-15 -145 22 -17 c12 -10 25 -17 28 -15 11 4 279 327 279 336 0 4 -8 15
-18 24 -17 16 -24 9 -127 -113 -60 -71 -110 -128 -111 -127 -2 1 7 92 18 201
l20 198 -23 23 -24 23 -142 -171z"/>
<path d="M7945 7205 l-160 -154 22 -22 22 -23 123 119 c68 65 140 135 161 155
l38 36 -23 21 -23 21 -160 -153z"/>
<path d="M2437 7162 c-10 -10 -17 -21 -17 -24 0 -5 198 -180 321 -284 13 -12
27 0 107 93 92 107 92 108 71 124 -21 16 -24 14 -91 -62 -39 -44 -73 -79 -77
-79 -3 0 -71 56 -149 125 -79 69 -145 125 -146 125 -2 0 -10 -8 -19 -18z"/>
<path d="M8164 6947 l-131 -204 19 -24 20 -23 131 32 c149 38 320 84 326 88 2
2 -3 14 -12 28 l-16 24 -63 -18 c-179 -52 -321 -90 -325 -87 -2 3 46 77 107
165 60 88 110 164 110 169 0 4 -8 18 -18 30 -17 23 -18 21 -148 -180z"/>
<path d="M2171 6786 c-8 -13 -12 -28 -10 -33 2 -6 65 -94 139 -196 135 -187
135 -187 152 -165 10 13 18 26 18 29 0 3 -18 30 -40 59 -22 29 -40 57 -40 60
0 4 21 39 47 79 46 73 46 73 82 66 107 -20 116 -19 129 10 7 15 11 29 10 30
-6 4 -443 85 -459 85 -9 0 -21 -11 -28 -24z m179 -62 c41 -9 76 -18 78 -19 5
-4 -70 -115 -77 -115 -3 0 -11 8 -18 19 -6 10 -32 44 -57 75 -25 30 -46 59
-46 62 0 3 10 4 23 0 12 -3 56 -13 97 -22z"/>
<path d="M8455 6522 c-99 -54 -186 -101 -193 -106 -10 -6 5 -41 59 -144 39
-75 75 -141 79 -145 10 -11 50 1 50 14 0 5 -27 59 -60 120 -33 60 -60 113 -60
117 0 4 29 22 64 40 l65 31 58 -109 c53 -99 60 -107 78 -98 11 6 22 12 24 14
2 2 -22 51 -53 109 -31 58 -56 108 -56 110 0 5 113 66 116 62 1 -1 23 -42 49
-92 74 -140 71 -136 100 -123 l24 11 -41 76 c-22 42 -57 106 -77 143 -20 38
-38 68 -41 67 -3 0 -86 -44 -185 -97z"/>
<path d="M1944 6343 c-27 -29 -33 -42 -90 -181 -38 -93 -38 -92 -25 -92 6 0
98 -36 207 -80 108 -44 198 -79 199 -78 5 6 25 47 25 51 0 2 -37 19 -82 37
-46 18 -87 36 -91 40 -13 12 28 96 55 114 12 8 66 23 118 34 80 16 97 23 107
43 23 45 18 48 -62 33 -40 -8 -93 -21 -116 -29 -23 -8 -43 -15 -45 -15 -2 0
-4 18 -4 41 0 33 -6 47 -34 75 -30 30 -40 34 -85 34 -44 0 -56 -4 -77 -27z
m123 -55 c13 -12 23 -31 23 -42 0 -31 -55 -169 -69 -174 -18 -6 -121 39 -121
52 0 24 52 141 73 164 26 28 64 28 94 0z"/>
<path d="M8700 6007 c-113 -32 -209 -62 -213 -66 -4 -5 -5 -20 -2 -34 l7 -25
66 19 c37 11 81 23 98 26 30 5 31 4 43 -49 16 -66 14 -72 -73 -172 -59 -67
-61 -73 -52 -104 5 -18 12 -31 17 -30 16 6 122 133 134 161 l12 29 22 -29 c53
-67 122 -71 188 -10 37 33 38 73 4 193 -16 60 -33 118 -38 129 -8 20 -14 19
-213 -38z m198 -91 c12 -41 22 -85 22 -98 0 -38 -27 -68 -61 -68 -53 0 -67 15
-94 103 -14 46 -25 88 -25 93 0 8 88 38 125 43 6 0 20 -33 33 -73z"/>
<path d="M1733 5803 c-6 -26 -23 -104 -38 -172 -23 -103 -26 -124 -14 -132 28
-18 37 -8 54 62 16 63 20 70 39 66 11 -2 96 -21 189 -42 92 -21 169 -36 171
-34 3 2 7 15 11 29 l6 25 -191 44 c-104 25 -190 49 -190 54 0 5 7 36 16 69 8
33 14 62 12 63 -2 2 -15 6 -29 10 -25 6 -27 4 -36 -42z"/>
<path d="M8923 5446 c-46 -21 -63 -55 -79 -158 -19 -130 -34 -153 -93 -138
-48 11 -78 121 -50 183 6 13 24 31 40 41 30 18 35 31 20 55 -22 34 -105 -29
-122 -93 -12 -46 -5 -126 16 -166 41 -79 134 -105 194 -55 35 30 47 64 56 159
11 112 39 146 91 111 30 -19 44 -53 44 -104 0 -42 -31 -91 -57 -91 -12 0 -14
-6 -8 -27 9 -38 11 -39 50 -20 47 23 68 68 67 145 -1 119 -84 195 -169 158z"/>
<path d="M1624 5266 c-3 -8 -4 -23 -2 -33 3 -15 19 -19 113 -26 61 -4 137 -11
169 -15 l59 -7 -181 -99 c-150 -83 -181 -104 -185 -125 -3 -14 -2 -29 1 -32 6
-6 434 -50 439 -45 1 0 3 15 5 31 l3 30 -110 8 c-60 4 -137 11 -170 15 l-60 7
182 100 c176 96 183 101 183 131 l0 31 -192 17 c-106 9 -205 19 -221 22 -18 4
-29 1 -33 -10z"/>
<path d="M8930 4890 c-85 -4 -179 -8 -207 -9 -52 -1 -53 -1 -53 -33 l0 -31
143 6 c78 4 179 7 225 7 l82 0 0 35 c0 27 -4 35 -17 33 -10 -1 -88 -5 -173 -8z"/>
<path d="M2012 4703 c-16 -3 -21 -10 -18 -21 2 -9 7 -69 11 -133 l7 -116 -32
-7 c-18 -3 -52 -6 -75 -6 l-43 0 -7 120 -8 120 -29 0 -29 0 6 -72 c3 -40 8
-97 11 -125 l5 -53 -55 -1 c-31 -1 -62 -2 -68 -3 -9 -1 -16 36 -23 129 -9 114
-12 130 -29 133 -10 2 -22 0 -27 -5 -5 -5 -4 -74 3 -166 11 -148 13 -157 32
-157 34 0 338 21 385 26 l44 6 -7 96 c-12 179 -19 242 -25 241 -3 -1 -16 -4
-29 -6z"/>
<path d="M9057 4549 c-3 -39 -7 -73 -9 -74 -2 -2 -88 3 -193 10 -197 13 -204
12 -205 -27 0 -23 11 -25 215 -38 93 -6 172 -14 175 -16 2 -3 3 -36 1 -75 -3
-68 -3 -69 23 -69 14 0 26 3 26 8 1 4 7 81 14 172 7 91 11 168 9 173 -2 4 -15
7 -27 7 -21 0 -24 -5 -29 -71z"/>
<path d="M1960 4130 c0 -24 4 -30 21 -30 35 0 84 -29 102 -59 21 -36 22 -102
1 -142 -23 -46 -102 -79 -187 -79 -62 0 -70 2 -104 33 -31 29 -37 41 -41 89
-4 50 -2 58 27 90 35 40 36 47 18 72 -12 16 -14 16 -40 -4 -35 -28 -67 -90
-67 -131 0 -83 53 -168 124 -200 110 -50 281 12 328 118 52 117 -34 272 -149
273 -30 0 -33 -3 -33 -30z"/>
<path d="M8897 4025 l-137 -56 -86 21 c-47 11 -89 18 -94 15 -4 -3 -10 -16
-12 -30 -6 -28 -10 -25 104 -50 l78 -16 108 -116 109 -115 7 38 c7 36 6 39
-79 124 l-86 87 115 42 c64 24 116 48 116 55 0 6 3 21 6 34 4 12 2 22 -2 22
-5 0 -71 -25 -147 -55z"/>
<path d="M5207 7416 c-38 -11 -65 -30 -135 -97 -48 -47 -355 -345 -682 -663
-327 -319 -603 -587 -614 -597 -18 -16 20 -56 1010 -1060 566 -574 1110 -1126
1209 -1227 l179 -183 -165 -167 c-90 -92 -243 -247 -339 -345 -192 -195 -198
-198 -315 -198 -42 0 -75 6 -98 18 -19 10 -146 117 -283 239 -137 121 -261
232 -277 245 l-28 24 351 340 c192 187 350 342 350 345 0 3 -47 45 -105 93
-66 55 -110 85 -118 80 -6 -4 -247 -237 -535 -517 l-522 -510 133 -136 c73
-74 290 -295 482 -491 l350 -357 80 -25 c157 -49 323 -71 376 -49 23 10 1400
1363 1397 1372 -2 5 -545 558 -1208 1231 -663 672 -1206 1227 -1208 1233 -5
19 668 682 718 707 30 14 64 22 100 23 103 1 132 -20 515 -374 193 -177 358
-330 367 -339 17 -15 -3 -38 -321 -376 l-338 -360 25 -30 c14 -16 49 -57 80
-89 l55 -60 120 125 c66 68 313 318 549 555 l430 431 -636 592 -636 591 -67
10 c-91 13 -188 11 -246 -4z"/>
<path d="M6771 5856 c-115 -115 -182 -189 -178 -198 3 -7 159 -179 346 -382
367 -397 372 -404 370 -510 -1 -91 -11 -106 -214 -291 l-190 -174 -171 172
c-93 95 -279 285 -413 422 l-243 250 -94 -99 -94 -98 529 -537 c291 -295 567
-573 613 -618 l83 -83 447 448 c481 480 478 477 478 579 0 54 -26 172 -51 230
-13 31 -152 180 -520 558 -276 283 -505 515 -508 515 -3 0 -89 -83 -190 -184z"/>
<path d="M3207 5484 c-394 -390 -399 -395 -437 -478 -51 -107 -71 -184 -71
-275 -1 -128 -16 -111 640 -751 l585 -570 37 33 c21 17 265 248 543 512 l505
480 -197 192 c-108 106 -202 192 -207 193 -6 0 -161 -151 -345 -335 -184 -185
-340 -334 -346 -333 -5 2 -111 111 -233 243 -262 281 -285 317 -286 445 0 56
5 83 18 103 18 28 342 325 364 334 7 3 98 -75 203 -174 105 -98 198 -178 206
-178 15 0 194 126 194 137 0 5 -602 641 -749 790 l-26 27 -398 -395z"/>
<path d="M6694 1858 c13 -20 13 -28 0 -63 -19 -54 -18 -55 16 -55 28 0 30 -2
19 -21 -9 -17 -7 -25 10 -43 17 -18 20 -28 13 -47 -5 -13 -7 -29 -5 -34 3 -10
-128 -95 -169 -111 -10 -3 -18 -10 -18 -15 0 -26 57 1 207 96 91 59 168 104
171 101 3 -3 0 -17 -6 -31 -15 -33 -9 -32 39 7 39 31 52 71 27 81 -7 2 -36 -8
-64 -24 -28 -16 -54 -26 -57 -22 -12 11 -7 96 8 137 7 21 11 45 8 52 -6 16
-49 19 -58 3 -4 -5 -19 -15 -33 -21 l-27 -11 35 -6 c33 -6 35 -8 38 -48 3 -38
0 -44 -22 -55 -33 -14 -33 -28 -1 -28 41 0 34 -43 -12 -74 -43 -30 -52 -27
-29 8 21 33 20 46 -4 46 -29 0 -35 24 -14 54 11 18 22 25 34 21 11 -3 20 1 24
11 10 27 -3 33 -39 18 -48 -20 -48 -19 -41 27 7 44 -9 68 -47 69 -16 0 -16 -2
-3 -22z"/>
<path d="M6636 1733 c13 -43 24 -89 24 -103 0 -29 16 -50 38 -50 24 0 9 87
-27 163 -46 96 -66 90 -35 -10z"/>
<path d="M6584 1643 c3 -21 6 -50 6 -65 0 -23 4 -28 25 -28 31 0 31 5 3 75
-26 63 -43 72 -34 18z"/>
<path d="M4735 1591 c-15 -30 -16 -31 -75 -24 -52 5 -60 4 -60 -11 0 -17 24
-30 73 -41 21 -4 27 -10 23 -22 -12 -31 -100 -143 -113 -143 -21 0 -15 -28 7
-35 11 -3 20 -13 20 -21 0 -11 9 -14 33 -12 20 2 32 8 32 18 0 10 -8 14 -27
12 -16 -1 -28 0 -28 3 0 4 15 25 33 49 17 23 47 69 66 102 l35 59 61 0 c39 0
68 5 79 14 23 19 7 32 -29 23 -52 -13 -83 -4 -87 25 -4 38 -24 39 -43 4z"/>
<path d="M5636 1544 c-3 -9 -1 -22 5 -30 13 -16 28 -161 19 -194 -5 -19 -28
-36 -93 -70 -48 -25 -87 -48 -87 -52 0 -19 60 -5 103 22 57 36 64 37 72 9 12
-35 -4 -86 -41 -135 l-36 -47 29 7 c57 13 117 106 115 178 0 27 5 53 12 61 7
7 47 21 89 30 77 19 114 44 104 72 -9 22 -29 19 -104 -15 -36 -16 -72 -30 -79
-30 -22 0 -34 35 -34 97 0 32 -6 69 -13 83 -15 30 -52 38 -61 14z"/>
<path d="M6782 1501 c-92 -68 -103 -81 -69 -81 13 0 36 13 52 30 32 33 43 30
47 -15 1 -23 -9 -46 -41 -88 -47 -62 -48 -87 -5 -87 87 0 164 61 144 114 -15
42 -12 56 15 66 14 5 25 15 25 21 0 6 -6 9 -14 6 -8 -3 -30 -9 -49 -12 -44 -9
-56 9 -28 39 21 22 29 66 12 66 -5 0 -45 -27 -89 -59z m86 -145 c2 -15 -2 -34
-8 -41 -13 -15 -77 -31 -87 -22 -8 9 68 98 81 94 6 -2 12 -16 14 -31z"/>
<path d="M6506 1464 c-13 -33 -6 -104 10 -111 31 -12 45 51 22 102 -13 29 -23
32 -32 9z"/>
<path d="M4875 1393 c-140 -11 -145 -13 -139 -39 8 -32 -38 -94 -70 -94 -12 0
-31 -6 -41 -14 -18 -13 -17 -15 23 -25 23 -7 42 -16 42 -21 0 -15 -36 -30 -69
-30 -42 0 -39 -18 5 -26 43 -8 49 -20 35 -70 -6 -21 -8 -40 -5 -43 10 -10 43
39 56 80 9 31 18 41 41 47 40 10 48 32 12 32 -37 0 -30 34 8 38 32 4 31 22 -2
38 -14 7 -19 14 -12 18 6 4 11 23 11 42 0 30 3 34 23 30 12 -3 52 -7 89 -11
88 -7 98 -12 98 -45 0 -59 -72 -221 -104 -233 -7 -3 -24 1 -35 10 -12 8 -25
12 -28 9 -11 -11 15 -54 43 -73 27 -17 27 -17 58 19 33 38 136 272 136 308 0
12 -13 28 -32 40 -32 19 -51 21 -143 13z"/>
<path d="M4472 1309 c-46 -102 -46 -105 -18 -134 45 -45 51 -36 61 90 8 113
-6 127 -43 44z"/>
<path d="M5840 1191 c0 -5 9 -12 19 -16 11 -3 45 -30 75 -60 56 -55 92 -69
114 -42 11 14 1 47 -21 65 -22 19 -137 62 -164 62 -13 0 -23 -4 -23 -9z"/>
</g>
</svg>
